<svg width="1599" height="1110" viewBox="0 0 1599 1110" preserveAspectRatio="none" xmlns="http://www.w3.org/2000/svg" xmlns:xlink="http://www.w3.org/1999/xlink" overflow="hidden"><defs></defs><g><rect x="10" y="266.047" width="1010.24" height="284.828" stroke="#000000" stroke-width="1.5" fill="none"/><rect x="10" y="985.578" width="593.638" height="101.109" stroke="#000000" stroke-width="1.5" fill="none"/><g id="part1-lifeline"><g><rect x="80.0854" y="90.6094" width="8" height="1013.08" fill-opacity="0"/><line x1="84" y1="90.6094" x2="84" y2="1103.69" stroke="#181818" stroke-width="0.5" stroke-dasharray="5 5"/></g></g><g id="part2-lifeline"><g><rect x="571.342" y="90.6094" width="8" height="1013.08" fill-opacity="0"/><line x1="575.047" y1="90.6094" x2="575.047" y2="1103.69" stroke="#181818" stroke-width="0.5" stroke-dasharray="5 5"/></g></g><g id="part3-lifeline"><g><rect x="958.217" y="90.6094" width="8" height="1013.08" fill-opacity="0"/><line x1="962.198" y1="90.6094" x2="962.198" y2="1103.69" stroke="#181818" stroke-width="0.5" stroke-dasharray="5 5"/></g></g><g id="part4-lifeline"><g><rect x="1396.57" y="90.6094" width="8" height="1013.08" fill-opacity="0"/><line x1="1400.08" y1="90.6094" x2="1400.08" y2="1103.69" stroke="#181818" stroke-width="0.5" stroke-dasharray="5 5"/></g></g><g id="part5-lifeline"><g><rect x="1527.97" y="90.6094" width="8" height="1013.08" fill-opacity="0"/><line x1="1531.06" y1="90.6094" x2="1531.06" y2="1103.69" stroke="#181818" stroke-width="0.5" stroke-dasharray="5 5"/></g></g><g id="part1-head"><text font-family="Arial" font-size="22" x="20" y="85.4209">User/Guest</text><ellipse cx="84.0854" cy="13.5" rx="8" ry="8" stroke="#181818" stroke-width="0.5" fill="#E2E2F0"/><path d="M84.0854 21.5 84.0854 48.5M71.0854 29.5 97.0854 29.5M84.0854 48.5 71.0854 63.5M84.0854 48.5 97.0854 63.5" stroke="#181818" stroke-width="0.5" fill="none"/></g><g id="part2-head"><rect x="557.047" y="50" rx="2.5" ry="2.5" width="36.5908" height="39.6094" stroke="#181818" stroke-width="0.5" fill="#E2E2F0"/><text font-family="Arial" font-size="22" x="564.047" y="77.4209">UI</text></g><g id="part3-head"><rect x="914.198" y="50" rx="2.5" ry="2.5" width="96.0381" height="39.6094" stroke="#181818" stroke-width="0.5" fill="#E2E2F0"/><text font-family="Arial" font-size="22" x="921.198" y="77.4209">System</text></g><g id="part4-head"><rect x="1341.08" y="50" rx="2.5" ry="2.5" width="118.973" height="39.6094" stroke="#181818" stroke-width="0.5" fill="#E2E2F0"/><text font-family="Arial" font-size="22" x="1348.08" y="77.4209">Database</text></g><g id="part5-head"><rect x="1470.06" y="50" rx="2.5" ry="2.5" width="123.839" height="39.6094" stroke="#181818" stroke-width="0.5" fill="#E2E2F0"/><text font-family="Arial" font-size="22" x="1477.06" y="77.4209">AI Service</text></g><g id="msg1"><path d="M563.342 128.219 573.342 132.219 563.342 136.219 567.342 132.219Z" stroke="#181818" fill="#181818"/><line x1="84.0854" y1="132.219" x2="569.342" y2="132.219" stroke="#181818"/><text font-family="Arial" font-weight="700" font-size="22" x="91.0854" y="125.03">1</text><text font-family="Arial" font-size="22" x="110.393" y="125.03">Bấm nút mở chatbot tư vấn trên website</text></g><g id="msg2"><path d="M95.0854 167.828 85.0854 171.828 95.0854 175.828 91.0854 171.828Z" stroke="#181818" fill="#181818"/><line x1="89.0854" y1="171.828" x2="574.342" y2="171.828" stroke="#181818" stroke-dasharray="2 2"/><text font-family="Arial" font-weight="700" font-size="22" x="101.085" y="164.64">2</text><text font-family="Arial" font-size="22" x="120.393" y="164.64">Mở khung chatbot "AURA Sales AI"</text></g><g id="msg3"><path d="M586.342 207.438 576.342 211.438 586.342 215.438 582.342 211.438Z" stroke="#181818" fill="#181818"/><line x1="580.342" y1="211.438" x2="961.217" y2="211.438" stroke="#181818" stroke-dasharray="2 2"/><text font-family="Arial" font-weight="700" font-size="22" x="592.342" y="204.249">3</text><text font-family="Arial" font-size="22" x="611.65" y="204.249">Trả lời chào và các gợi ý nhanh</text></g><g id="msg4"><path d="M95.0854 247.047 85.0854 251.047 95.0854 255.047 91.0854 251.047Z" stroke="#181818" fill="#181818"/><line x1="89.0854" y1="251.047" x2="574.342" y2="251.047" stroke="#181818" stroke-dasharray="2 2"/><text font-family="Arial" font-weight="700" font-size="22" x="101.085" y="243.858">4</text><text font-family="Arial" font-size="22" x="120.393" y="243.858">Hiển thị lời chào và các gợi ý nhanh</text></g><path d="M10 266.047 87.9033 266.047 87.9033 283.656 77.9033 293.656 10 293.656 10 266.047" stroke="#000000" stroke-width="1.5" fill="#EEEEEE"/><rect x="10" y="266.047" width="1010.24" height="284.828" stroke="#000000" stroke-width="1.5" fill="none"/><text font-family="Arial" font-weight="700" font-size="22" x="25" y="287.468">alt</text><text font-family="Arial" font-weight="700" font-size="20" x="102.903" y="286.611">[User tự nhập nhu cầu tư vấn]</text><g id="msg5"><path d="M563.342 329.547 573.342 333.547 563.342 337.547 567.342 333.547Z" stroke="#181818" fill="#181818"/><line x1="84.0854" y1="333.547" x2="569.342" y2="333.547" stroke="#181818"/><text font-family="Arial" font-weight="700" font-size="22" x="91.0854" y="326.358">5</text><text font-family="Arial" font-size="22" x="110.393" y="326.358">Nhập nhu cầu tư vấn vào ô chat</text></g><g id="msg6"><path d="M563.342 369.156 573.342 373.156 563.342 377.156 567.342 373.156Z" stroke="#181818" fill="#181818"/><line x1="84.0854" y1="373.156" x2="569.342" y2="373.156" stroke="#181818"/><text font-family="Arial" font-weight="700" font-size="22" x="91.0854" y="365.968">6</text><text font-family="Arial" font-size="22" x="110.393" y="365.968">Bấm nút gửi tin nhắn</text></g><g id="msg7"><path d="M950.217 408.766 960.217 412.766 950.217 416.766 954.217 412.766Z" stroke="#181818" fill="#181818"/><line x1="575.342" y1="412.766" x2="956.217" y2="412.766" stroke="#181818"/><text font-family="Arial" font-weight="700" font-size="22" x="582.342" y="405.577">7</text><text font-family="Arial" font-size="22" x="601.65" y="405.577">Gửi nội dung User nhập</text></g><line x1="10" y1="421.766" x2="1020.24" y2="421.766" stroke="#000000" stroke-dasharray="2 2"/><text font-family="Arial" font-weight="700" font-size="20" x="15" y="440.33">[User chọn gợi ý nhanh]</text><g id="msg8"><path d="M563.342 473.656 573.342 477.656 563.342 481.656 567.342 477.656Z" stroke="#181818" fill="#181818"/><line x1="84.0854" y1="477.656" x2="569.342" y2="477.656" stroke="#181818"/><text font-family="Arial" font-weight="700" font-size="22" x="91.0854" y="470.468">8</text><text font-family="Arial" font-size="22" x="110.393" y="470.468">Chọn một gợi ý nhanh</text></g><g id="msg9"><path d="M950.217 538.875 960.217 542.875 950.217 546.875 954.217 542.875Z" stroke="#181818" fill="#181818"/><line x1="575.342" y1="542.875" x2="956.217" y2="542.875" stroke="#181818"/><text font-family="Arial" font-weight="700" font-size="22" x="582.342" y="522.882">9</text><text font-family="Arial" font-size="22" x="601.65" y="510.077">Gửi nội dung gợi ý nhanh</text><text font-family="Arial" font-size="22" x="601.65" y="535.687">làm nhu cầu tư vấn</text></g><g id="msg10"><line x1="962.217" y1="589.484" x2="1004.22" y2="589.484" stroke="#181818"/><line x1="1004.22" y1="589.484" x2="1004.22" y2="602.484" stroke="#181818"/><line x1="963.217" y1="602.484" x2="1004.22" y2="602.484" stroke="#181818"/><path d="M973.217 598.484 963.217 602.484 973.217 606.484 969.217 602.484Z" stroke="#181818" fill="#181818"/><text font-family="Arial" font-weight="700" font-size="22" x="969.217" y="582.296">10</text><text font-family="Arial" font-size="22" x="1003.83" y="582.296">Ghi nhận nội dung User nhập</text></g><g id="msg11"><path d="M1519.97 638.094 1529.97 642.094 1519.97 646.094 1523.97 642.094Z" stroke="#181818" fill="#181818"/><line x1="962.217" y1="642.094" x2="1525.97" y2="642.094" stroke="#181818"/><text font-family="Arial" font-weight="700" font-size="22" x="969.217" y="634.905">11</text><text font-family="Arial" font-size="22" x="1003.83" y="634.905">Phân tích nhu cầu tư vấn</text></g><g id="msg12"><path d="M973.217 677.703 963.217 681.703 973.217 685.703 969.217 681.703Z" stroke="#181818" fill="#181818"/><line x1="967.217" y1="681.703" x2="1530.97" y2="681.703" stroke="#181818" stroke-dasharray="2 2"/><text font-family="Arial" font-weight="700" font-size="22" x="979.217" y="674.515">12</text><text font-family="Arial" font-size="22" x="1013.83" y="674.515">Trả kết quả phân tích nhu cầu</text></g><g id="msg13"><path d="M1388.57 717.312 1398.57 721.312 1388.57 725.312 1392.57 721.312Z" stroke="#181818" fill="#181818"/><line x1="962.217" y1="721.312" x2="1394.57" y2="721.312" stroke="#181818"/><text font-family="Arial" font-weight="700" font-size="22" x="969.217" y="714.124">13</text><text font-family="Arial" font-size="22" x="1003.83" y="714.124">Tìm sản phẩm phù hợp trong shop</text></g><g id="msg14"><path d="M973.217 756.922 963.217 760.922 973.217 764.922 969.217 760.922Z" stroke="#181818" fill="#181818"/><line x1="967.217" y1="760.922" x2="1399.57" y2="760.922" stroke="#181818" stroke-dasharray="2 2"/><text font-family="Arial" font-weight="700" font-size="22" x="979.217" y="753.733">14</text><text font-family="Arial" font-size="22" x="1013.83" y="753.733">Trả danh sách sản phẩm phù hợp</text></g><g id="msg15"><path d="M1519.97 822.141 1529.97 826.141 1519.97 830.141 1523.97 826.141Z" stroke="#181818" fill="#181818"/><line x1="962.217" y1="826.141" x2="1525.97" y2="826.141" stroke="#181818"/><text font-family="Arial" font-weight="700" font-size="22" x="969.217" y="806.148">15</text><text font-family="Arial" font-size="22" x="1003.83" y="793.343">Tạo câu trả lời tư vấn</text><text font-family="Arial" font-size="22" x="1003.83" y="818.952">theo nhu cầu và sản phẩm phù hợp</text></g><g id="msg16"><path d="M973.217 861.75 963.217 865.75 973.217 869.75 969.217 865.75Z" stroke="#181818" fill="#181818"/><line x1="967.217" y1="865.75" x2="1530.97" y2="865.75" stroke="#181818" stroke-dasharray="2 2"/><text font-family="Arial" font-weight="700" font-size="22" x="979.217" y="858.562">16</text><text font-family="Arial" font-size="22" x="1013.83" y="858.562">Trả nội dung tư vấn</text></g><g id="msg17"><path d="M586.342 926.969 576.342 930.969 586.342 934.969 582.342 930.969Z" stroke="#181818" fill="#181818"/><line x1="580.342" y1="930.969" x2="961.217" y2="930.969" stroke="#181818" stroke-dasharray="2 2"/><text font-family="Arial" font-weight="700" font-size="22" x="592.342" y="910.976">17</text><text font-family="Arial" font-size="22" x="626.957" y="898.171">Trả câu trả lời tư vấn</text><text font-family="Arial" font-size="22" x="626.957" y="923.78">và sản phẩm gợi ý</text></g><g id="msg18"><path d="M95.0854 966.578 85.0854 970.578 95.0854 974.578 91.0854 970.578Z" stroke="#181818" fill="#181818"/><line x1="89.0854" y1="970.578" x2="574.342" y2="970.578" stroke="#181818" stroke-dasharray="2 2"/><text font-family="Arial" font-weight="700" font-size="22" x="101.085" y="963.39">18</text><text font-family="Arial" font-size="22" x="135.701" y="963.39">Hiển thị câu trả lời tư vấn</text></g><path d="M10 985.578 96.3789 985.578 96.3789 1003.19 86.3789 1013.19 10 1013.19 10 985.578" stroke="#000000" stroke-width="1.5" fill="#EEEEEE"/><rect x="10" y="985.578" width="593.638" height="101.109" stroke="#000000" stroke-width="1.5" fill="none"/><text font-family="Arial" font-weight="700" font-size="22" x="25" y="1007">opt</text><text font-family="Arial" font-weight="700" font-size="20" x="111.379" y="1006.14">[Có sản phẩm phù hợp]</text><g id="msg19"><path d="M95.0854 1074.69 85.0854 1078.69 95.0854 1082.69 91.0854 1078.69Z" stroke="#181818" fill="#181818"/><line x1="89.0854" y1="1078.69" x2="574.342" y2="1078.69" stroke="#181818" stroke-dasharray="2 2"/><text font-family="Arial" font-weight="700" font-size="22" x="101.085" y="1058.69">19</text><text font-family="Arial" font-size="22" x="135.701" y="1045.89">Hiển thị tên sản phẩm</text><text font-family="Arial" font-size="22" x="135.701" y="1071.5">và giá để User tham khảo</text></g></g></svg>