<svg width="1641" height="2043" viewBox="0 0 1641 2043" preserveAspectRatio="none" xmlns="http://www.w3.org/2000/svg" xmlns:xlink="http://www.w3.org/1999/xlink" overflow="hidden"><defs></defs><g><rect x="10" y="659.75" width="1624.05" height="652.922" stroke="#000000" stroke-width="1.5" fill="none"/><rect x="10" y="1471.11" width="620.5" height="140.719" stroke="#000000" stroke-width="1.5" fill="none"/><g id="part1-lifeline"><g><rect x="44.0723" y="90.6094" width="8" height="1945.92" fill-opacity="0"/><line x1="48" y1="90.6094" x2="48" y2="2036.53" stroke="#181818" stroke-width="0.5" stroke-dasharray="5 5"/></g></g><g id="part2-lifeline"><g><rect x="538.885" y="90.6094" width="8" height="1945.92" fill-opacity="0"/><line x1="542.589" y1="90.6094" x2="542.589" y2="2036.53" stroke="#181818" stroke-width="0.5" stroke-dasharray="5 5"/></g></g><g id="part3-lifeline"><g><rect x="1067.8" y="90.6094" width="8" height="1945.92" fill-opacity="0"/><line x1="1071.78" y1="90.6094" x2="1071.78" y2="2036.53" stroke="#181818" stroke-width="0.5" stroke-dasharray="5 5"/></g></g><g id="part4-lifeline"><g><rect x="1560.56" y="90.6094" width="8" height="1945.92" fill-opacity="0"/><line x1="1564.08" y1="90.6094" x2="1564.08" y2="2036.53" stroke="#181818" stroke-width="0.5" stroke-dasharray="5 5"/></g></g><g id="part1-head"><text font-family="Arial" font-size="22" x="20" y="85.4209">User</text><ellipse cx="48.0723" cy="13.5" rx="8" ry="8" stroke="#181818" stroke-width="0.5" fill="#E2E2F0"/><path d="M48.0723 21.5 48.0723 48.5M35.0723 29.5 61.0723 29.5M48.0723 48.5 35.0723 63.5M48.0723 48.5 61.0723 63.5" stroke="#181818" stroke-width="0.5" fill="none"/></g><g id="part2-head"><rect x="524.589" y="50" rx="2.5" ry="2.5" width="36.5908" height="39.6094" stroke="#181818" stroke-width="0.5" fill="#E2E2F0"/><text font-family="Arial" font-size="22" x="531.589" y="77.4209">UI</text></g><g id="part3-head"><rect x="1023.78" y="50" rx="2.5" ry="2.5" width="96.0381" height="39.6094" stroke="#181818" stroke-width="0.5" fill="#E2E2F0"/><text font-family="Arial" font-size="22" x="1030.78" y="77.4209">System</text></g><g id="part4-head"><rect x="1505.08" y="50" rx="2.5" ry="2.5" width="118.973" height="39.6094" stroke="#181818" stroke-width="0.5" fill="#E2E2F0"/><text font-family="Arial" font-size="22" x="1512.08" y="77.4209">Database</text></g><g id="msg1"><path d="M530.885 153.828 540.885 157.828 530.885 161.828 534.885 157.828Z" stroke="#181818" fill="#181818"/><line x1="48.0723" y1="157.828" x2="536.885" y2="157.828" stroke="#181818"/><text font-family="Arial" font-weight="700" font-size="22" x="55.0723" y="137.835">1</text><text font-family="Arial" font-size="22" x="74.3799" y="125.03">Mở menu tài khoản</text><text font-family="Arial" font-size="22" x="74.3799" y="150.64">và chọn "Đơn mua"</text></g><g id="msg2"><path d="M1059.8 193.438 1069.8 197.438 1059.8 201.438 1063.8 197.438Z" stroke="#181818" fill="#181818"/><line x1="542.885" y1="197.438" x2="1065.8" y2="197.438" stroke="#181818"/><text font-family="Arial" font-weight="700" font-size="22" x="549.885" y="190.249">2</text><text font-family="Arial" font-size="22" x="569.192" y="190.249">Yêu cầu lịch sử đơn hàng</text></g><g id="msg3"><path d="M1552.56 233.047 1562.56 237.047 1552.56 241.047 1556.56 237.047Z" stroke="#181818" fill="#181818"/><line x1="1071.8" y1="237.047" x2="1558.56" y2="237.047" stroke="#181818"/><text font-family="Arial" font-weight="700" font-size="22" x="1078.8" y="229.858">3</text><text font-family="Arial" font-size="22" x="1098.11" y="229.858">Lấy danh sách đơn hàng theo trạng thái</text></g><g id="msg4"><path d="M1082.8 272.656 1072.8 276.656 1082.8 280.656 1078.8 276.656Z" stroke="#181818" fill="#181818"/><line x1="1076.8" y1="276.656" x2="1563.56" y2="276.656" stroke="#181818" stroke-dasharray="2 2"/><text font-family="Arial" font-weight="700" font-size="22" x="1088.8" y="269.468">4</text><text font-family="Arial" font-size="22" x="1108.11" y="269.468">Trả danh sách đơn hàng</text></g><g id="msg5"><path d="M553.885 312.266 543.885 316.266 553.885 320.266 549.885 316.266Z" stroke="#181818" fill="#181818"/><line x1="547.885" y1="316.266" x2="1070.8" y2="316.266" stroke="#181818" stroke-dasharray="2 2"/><text font-family="Arial" font-weight="700" font-size="22" x="559.885" y="309.077">5</text><text font-family="Arial" font-size="22" x="579.192" y="309.077">Trả dữ liệu lịch sử đơn hàng</text></g><g id="msg6"><path d="M59.0723 377.484 49.0723 381.484 59.0723 385.484 55.0723 381.484Z" stroke="#181818" fill="#181818"/><line x1="53.0723" y1="381.484" x2="541.885" y2="381.484" stroke="#181818" stroke-dasharray="2 2"/><text font-family="Arial" font-weight="700" font-size="22" x="65.0723" y="361.491">6</text><text font-family="Arial" font-size="22" x="84.3799" y="348.687">Hiển thị lịch sử đơn hàng</text><text font-family="Arial" font-size="22" x="84.3799" y="374.296">theo các trạng thái</text></g><g id="msg7"><path d="M530.885 417.094 540.885 421.094 530.885 425.094 534.885 421.094Z" stroke="#181818" fill="#181818"/><line x1="48.0723" y1="421.094" x2="536.885" y2="421.094" stroke="#181818"/><text font-family="Arial" font-weight="700" font-size="22" x="55.0723" y="413.905">7</text><text font-family="Arial" font-size="22" x="74.3799" y="413.905">Chọn tab "Hoàn thành"</text></g><g id="msg8"><path d="M1059.8 456.703 1069.8 460.703 1059.8 464.703 1063.8 460.703Z" stroke="#181818" fill="#181818"/><line x1="542.885" y1="460.703" x2="1065.8" y2="460.703" stroke="#181818"/><text font-family="Arial" font-weight="700" font-size="22" x="549.885" y="453.515">8</text><text font-family="Arial" font-size="22" x="569.192" y="453.515">Yêu cầu danh sách đơn hàng đã hoàn thành</text></g><g id="msg9"><path d="M1552.56 496.312 1562.56 500.312 1552.56 504.312 1556.56 500.312Z" stroke="#181818" fill="#181818"/><line x1="1071.8" y1="500.312" x2="1558.56" y2="500.312" stroke="#181818"/><text font-family="Arial" font-weight="700" font-size="22" x="1078.8" y="493.124">9</text><text font-family="Arial" font-size="22" x="1098.11" y="493.124">Lấy các đơn hàng đã hoàn thành</text></g><g id="msg10"><path d="M1082.8 535.922 1072.8 539.922 1082.8 543.922 1078.8 539.922Z" stroke="#181818" fill="#181818"/><line x1="1076.8" y1="539.922" x2="1563.56" y2="539.922" stroke="#181818" stroke-dasharray="2 2"/><text font-family="Arial" font-weight="700" font-size="22" x="1088.8" y="532.733">10</text><text font-family="Arial" font-size="22" x="1123.42" y="532.733">Trả danh sách đơn hàng đã hoàn thành</text></g><g id="msg11"><path d="M553.885 575.531 543.885 579.531 553.885 583.531 549.885 579.531Z" stroke="#181818" fill="#181818"/><line x1="547.885" y1="579.531" x2="1070.8" y2="579.531" stroke="#181818" stroke-dasharray="2 2"/><text font-family="Arial" font-weight="700" font-size="22" x="559.885" y="572.343">11</text><text font-family="Arial" font-size="22" x="594.5" y="572.343">Trả dữ liệu đơn hàng đã hoàn thành</text></g><g id="msg12"><path d="M59.0723 640.75 49.0723 644.75 59.0723 648.75 55.0723 644.75Z" stroke="#181818" fill="#181818"/><line x1="53.0723" y1="644.75" x2="541.885" y2="644.75" stroke="#181818" stroke-dasharray="2 2"/><text font-family="Arial" font-weight="700" font-size="22" x="65.0723" y="624.757">12</text><text font-family="Arial" font-size="22" x="99.6875" y="611.952">Hiển thị đơn hàng đã hoàn thành</text><text font-family="Arial" font-size="22" x="99.6875" y="637.562">và nút "Viết đánh giá"</text></g><path d="M10 659.75 87.9033 659.75 87.9033 677.359 77.9033 687.359 10 687.359 10 659.75" stroke="#000000" stroke-width="1.5" fill="#EEEEEE"/><rect x="10" y="659.75" width="1624.05" height="652.922" stroke="#000000" stroke-width="1.5" fill="none"/><text font-family="Arial" font-weight="700" font-size="22" x="25" y="681.171">alt</text><text font-family="Arial" font-weight="700" font-size="20" x="102.903" y="680.314">[User bấm "Viết đánh giá"]</text><g id="msg13"><path d="M530.885 723.25 540.885 727.25 530.885 731.25 534.885 727.25Z" stroke="#181818" fill="#181818"/><line x1="48.0723" y1="727.25" x2="536.885" y2="727.25" stroke="#181818"/><text font-family="Arial" font-weight="700" font-size="22" x="55.0723" y="720.062">13</text><text font-family="Arial" font-size="22" x="89.6875" y="720.062">Bấm "Viết đánh giá"</text></g><g id="msg14"><path d="M1059.8 762.859 1069.8 766.859 1059.8 770.859 1063.8 766.859Z" stroke="#181818" fill="#181818"/><line x1="542.885" y1="766.859" x2="1065.8" y2="766.859" stroke="#181818"/><text font-family="Arial" font-weight="700" font-size="22" x="549.885" y="759.671">14</text><text font-family="Arial" font-size="22" x="584.5" y="759.671">Yêu cầu chi tiết đơn hàng</text></g><g id="msg15"><path d="M1552.56 828.078 1562.56 832.078 1552.56 836.078 1556.56 832.078Z" stroke="#181818" fill="#181818"/><line x1="1071.8" y1="832.078" x2="1558.56" y2="832.078" stroke="#181818"/><text font-family="Arial" font-weight="700" font-size="22" x="1078.8" y="812.085">15</text><text font-family="Arial" font-size="22" x="1113.42" y="799.28">Lấy chi tiết đơn hàng</text><text font-family="Arial" font-size="22" x="1113.42" y="824.89">và danh sách sản phẩm trong đơn</text></g><g id="msg16"><path d="M1082.8 867.688 1072.8 871.688 1082.8 875.688 1078.8 871.688Z" stroke="#181818" fill="#181818"/><line x1="1076.8" y1="871.688" x2="1563.56" y2="871.688" stroke="#181818" stroke-dasharray="2 2"/><text font-family="Arial" font-weight="700" font-size="22" x="1088.8" y="864.499">16</text><text font-family="Arial" font-size="22" x="1123.42" y="864.499">Trả danh sách sản phẩm trong đơn</text></g><g id="msg17"><path d="M553.885 907.297 543.885 911.297 553.885 915.297 549.885 911.297Z" stroke="#181818" fill="#181818"/><line x1="547.885" y1="911.297" x2="1070.8" y2="911.297" stroke="#181818" stroke-dasharray="2 2"/><text font-family="Arial" font-weight="700" font-size="22" x="559.885" y="904.108">17</text><text font-family="Arial" font-size="22" x="594.5" y="904.108">Trả chi tiết đơn hàng</text></g><g id="msg18"><path d="M59.0723 946.906 49.0723 950.906 59.0723 954.906 55.0723 950.906Z" stroke="#181818" fill="#181818"/><line x1="53.0723" y1="950.906" x2="541.885" y2="950.906" stroke="#181818" stroke-dasharray="2 2"/><text font-family="Arial" font-weight="700" font-size="22" x="65.0723" y="943.718">18</text><text font-family="Arial" font-size="22" x="99.6875" y="943.718">Hiển thị danh sách sản phẩm trong đơn</text></g><line x1="10" y1="959.906" x2="1634.05" y2="959.906" stroke="#000000" stroke-dasharray="2 2"/><text font-family="Arial" font-weight="700" font-size="20" x="15" y="978.471">[User bấm "Chi tiết"]</text><g id="msg19"><path d="M530.885 1011.8 540.885 1015.8 530.885 1019.8 534.885 1015.8Z" stroke="#181818" fill="#181818"/><line x1="48.0723" y1="1015.8" x2="536.885" y2="1015.8" stroke="#181818"/><text font-family="Arial" font-weight="700" font-size="22" x="55.0723" y="1008.61">19</text><text font-family="Arial" font-size="22" x="89.6875" y="1008.61">Bấm "Chi tiết"</text></g><g id="msg20"><path d="M1059.8 1051.41 1069.8 1055.41 1059.8 1059.41 1063.8 1055.41Z" stroke="#181818" fill="#181818"/><line x1="542.885" y1="1055.41" x2="1065.8" y2="1055.41" stroke="#181818"/><text font-family="Arial" font-weight="700" font-size="22" x="549.885" y="1048.22">20</text><text font-family="Arial" font-size="22" x="584.5" y="1048.22">Yêu cầu chi tiết đơn hàng</text></g><g id="msg21"><path d="M1552.56 1116.62 1562.56 1120.62 1552.56 1124.62 1556.56 1120.62Z" stroke="#181818" fill="#181818"/><line x1="1071.8" y1="1120.62" x2="1558.56" y2="1120.62" stroke="#181818"/><text font-family="Arial" font-weight="700" font-size="22" x="1078.8" y="1100.63">21</text><text font-family="Arial" font-size="22" x="1113.42" y="1087.83">Lấy chi tiết đơn hàng</text><text font-family="Arial" font-size="22" x="1113.42" y="1113.44">và danh sách sản phẩm trong đơn</text></g><g id="msg22"><path d="M1082.8 1156.23 1072.8 1160.23 1082.8 1164.23 1078.8 1160.23Z" stroke="#181818" fill="#181818"/><line x1="1076.8" y1="1160.23" x2="1563.56" y2="1160.23" stroke="#181818" stroke-dasharray="2 2"/><text font-family="Arial" font-weight="700" font-size="22" x="1088.8" y="1153.05">22</text><text font-family="Arial" font-size="22" x="1123.42" y="1153.05">Trả danh sách sản phẩm trong đơn</text></g><g id="msg23"><path d="M553.885 1195.84 543.885 1199.84 553.885 1203.84 549.885 1199.84Z" stroke="#181818" fill="#181818"/><line x1="547.885" y1="1199.84" x2="1070.8" y2="1199.84" stroke="#181818" stroke-dasharray="2 2"/><text font-family="Arial" font-weight="700" font-size="22" x="559.885" y="1192.66">23</text><text font-family="Arial" font-size="22" x="594.5" y="1192.66">Trả chi tiết đơn hàng</text></g><g id="msg24"><path d="M59.0723 1235.45 49.0723 1239.45 59.0723 1243.45 55.0723 1239.45Z" stroke="#181818" fill="#181818"/><line x1="53.0723" y1="1239.45" x2="541.885" y2="1239.45" stroke="#181818" stroke-dasharray="2 2"/><text font-family="Arial" font-weight="700" font-size="22" x="65.0723" y="1232.26">24</text><text font-family="Arial" font-size="22" x="99.6875" y="1232.26">Hiển thị chi tiết đơn hàng</text></g><g id="msg25"><path d="M530.885 1300.67 540.885 1304.67 530.885 1308.67 534.885 1304.67Z" stroke="#181818" fill="#181818"/><line x1="48.0723" y1="1304.67" x2="536.885" y2="1304.67" stroke="#181818"/><text font-family="Arial" font-weight="700" font-size="22" x="55.0723" y="1284.68">25</text><text font-family="Arial" font-size="22" x="89.6875" y="1271.87">Chọn sản phẩm chưa đánh giá</text><text font-family="Arial" font-size="22" x="89.6875" y="1297.48">và bấm "Đánh giá"</text></g><g id="msg26"><path d="M530.885 1372.89 540.885 1376.89 530.885 1380.89 534.885 1376.89Z" stroke="#181818" fill="#181818"/><line x1="48.0723" y1="1376.89" x2="536.885" y2="1376.89" stroke="#181818"/><text font-family="Arial" font-weight="700" font-size="22" x="55.0723" y="1356.9">26</text><text font-family="Arial" font-size="22" x="89.6875" y="1344.09">Chọn sản phẩm chưa đánh giá</text><text font-family="Arial" font-size="22" x="89.6875" y="1369.7">và bấm "Đánh giá"</text></g><g id="msg27"><path d="M59.0723 1412.5 49.0723 1416.5 59.0723 1420.5 55.0723 1416.5Z" stroke="#181818" fill="#181818"/><line x1="53.0723" y1="1416.5" x2="541.885" y2="1416.5" stroke="#181818" stroke-dasharray="2 2"/><text font-family="Arial" font-weight="700" font-size="22" x="65.0723" y="1409.31">27</text><text font-family="Arial" font-size="22" x="99.6875" y="1409.31">Hiển thị form đánh giá sản phẩm</text></g><g id="msg28"><path d="M530.885 1452.11 540.885 1456.11 530.885 1460.11 534.885 1456.11Z" stroke="#181818" fill="#181818"/><line x1="48.0723" y1="1456.11" x2="536.885" y2="1456.11" stroke="#181818"/><text font-family="Arial" font-weight="700" font-size="22" x="55.0723" y="1448.92">28</text><text font-family="Arial" font-size="22" x="89.6875" y="1448.92">Chọn số sao từ 1 đến 5</text></g><path d="M10 1471.11 96.3789 1471.11 96.3789 1488.72 86.3789 1498.72 10 1498.72 10 1471.11" stroke="#000000" stroke-width="1.5" fill="#EEEEEE"/><rect x="10" y="1471.11" width="620.5" height="140.719" stroke="#000000" stroke-width="1.5" fill="none"/><text font-family="Arial" font-weight="700" font-size="22" x="25" y="1492.53">opt</text><text font-family="Arial" font-weight="700" font-size="20" x="111.379" y="1491.67">[User nhập nội dung đánh giá hoặc chọn ảnh]</text><g id="msg29"><path d="M530.885 1560.22 540.885 1564.22 530.885 1568.22 534.885 1564.22Z" stroke="#181818" fill="#181818"/><line x1="48.0723" y1="1564.22" x2="536.885" y2="1564.22" stroke="#181818"/><text font-family="Arial" font-weight="700" font-size="22" x="55.0723" y="1544.23">29</text><text font-family="Arial" font-size="22" x="89.6875" y="1531.42">Nhập nội dung đánh giá</text><text font-family="Arial" font-size="22" x="89.6875" y="1557.03">hoặc chọn ảnh nếu muốn</text></g><g id="msg30"><path d="M59.0723 1599.83 49.0723 1603.83 59.0723 1607.83 55.0723 1603.83Z" stroke="#181818" fill="#181818"/><line x1="53.0723" y1="1603.83" x2="541.885" y2="1603.83" stroke="#181818" stroke-dasharray="2 2"/><text font-family="Arial" font-weight="700" font-size="22" x="65.0723" y="1596.64">30</text><text font-family="Arial" font-size="22" x="99.6875" y="1596.64">Hiển thị nội dung hoặc ảnh đã chọn</text></g><g id="msg31"><path d="M530.885 1646.44 540.885 1650.44 530.885 1654.44 534.885 1650.44Z" stroke="#181818" fill="#181818"/><line x1="48.0723" y1="1650.44" x2="536.885" y2="1650.44" stroke="#181818"/><text font-family="Arial" font-weight="700" font-size="22" x="55.0723" y="1643.25">31</text><text font-family="Arial" font-size="22" x="89.6875" y="1643.25">Bấm "Gửi đánh giá"</text></g><g id="msg32"><path d="M1059.8 1686.05 1069.8 1690.05 1059.8 1694.05 1063.8 1690.05Z" stroke="#181818" fill="#181818"/><line x1="542.885" y1="1690.05" x2="1065.8" y2="1690.05" stroke="#181818"/><text font-family="Arial" font-weight="700" font-size="22" x="549.885" y="1682.86">32</text><text font-family="Arial" font-size="22" x="584.5" y="1682.86">Gửi thông tin đánh giá</text></g><g id="msg33"><path d="M1552.56 1725.66 1562.56 1729.66 1552.56 1733.66 1556.56 1729.66Z" stroke="#181818" fill="#181818"/><line x1="1071.8" y1="1729.66" x2="1558.56" y2="1729.66" stroke="#181818"/><text font-family="Arial" font-weight="700" font-size="22" x="1078.8" y="1722.47">33</text><text font-family="Arial" font-size="22" x="1113.42" y="1722.47">Ghi nhận đánh giá sản phẩm</text></g><g id="msg34"><path d="M1082.8 1765.27 1072.8 1769.27 1082.8 1773.27 1078.8 1769.27Z" stroke="#181818" fill="#181818"/><line x1="1076.8" y1="1769.27" x2="1563.56" y2="1769.27" stroke="#181818" stroke-dasharray="2 2"/><text font-family="Arial" font-weight="700" font-size="22" x="1088.8" y="1762.08">34</text><text font-family="Arial" font-size="22" x="1123.42" y="1762.08">Xác nhận đã lưu đánh giá</text></g><g id="msg35"><path d="M1552.56 1830.48 1562.56 1834.48 1552.56 1838.48 1556.56 1834.48Z" stroke="#181818" fill="#181818"/><line x1="1071.8" y1="1834.48" x2="1558.56" y2="1834.48" stroke="#181818"/><text font-family="Arial" font-weight="700" font-size="22" x="1078.8" y="1814.49">35</text><text font-family="Arial" font-size="22" x="1113.42" y="1801.69">Cập nhật sản phẩm trong đơn</text><text font-family="Arial" font-size="22" x="1113.42" y="1827.3">sang trạng thái đã đánh giá</text></g><g id="msg36"><path d="M1082.8 1870.09 1072.8 1874.09 1082.8 1878.09 1078.8 1874.09Z" stroke="#181818" fill="#181818"/><line x1="1076.8" y1="1874.09" x2="1563.56" y2="1874.09" stroke="#181818" stroke-dasharray="2 2"/><text font-family="Arial" font-weight="700" font-size="22" x="1088.8" y="1866.91">36</text><text font-family="Arial" font-size="22" x="1123.42" y="1866.91">Xác nhận đã cập nhật trạng thái</text></g><g id="msg37"><path d="M553.885 1909.7 543.885 1913.7 553.885 1917.7 549.885 1913.7Z" stroke="#181818" fill="#181818"/><line x1="547.885" y1="1913.7" x2="1070.8" y2="1913.7" stroke="#181818" stroke-dasharray="2 2"/><text font-family="Arial" font-weight="700" font-size="22" x="559.885" y="1906.51">37</text><text font-family="Arial" font-size="22" x="594.5" y="1906.51">Trả kết quả gửi đánh giá thành công</text></g><g id="msg38"><path d="M59.0723 1949.31 49.0723 1953.31 59.0723 1957.31 55.0723 1953.31Z" stroke="#181818" fill="#181818"/><line x1="53.0723" y1="1953.31" x2="541.885" y2="1953.31" stroke="#181818" stroke-dasharray="2 2"/><text font-family="Arial" font-weight="700" font-size="22" x="65.0723" y="1946.12">38</text><text font-family="Arial" font-size="22" x="99.6875" y="1946.12">Hiển thị thông báo đã gửi đánh giá</text></g><g id="msg39"><path d="M59.0723 2014.53 49.0723 2018.53 59.0723 2022.53 55.0723 2018.53Z" stroke="#181818" fill="#181818"/><line x1="53.0723" y1="2018.53" x2="541.885" y2="2018.53" stroke="#181818" stroke-dasharray="2 2"/><text font-family="Arial" font-weight="700" font-size="22" x="65.0723" y="1998.54">39</text><text font-family="Arial" font-size="22" x="99.6875" y="1985.73">Cập nhật trạng thái sản phẩm</text><text font-family="Arial" font-size="22" x="99.6875" y="2011.34">là đã đánh giá</text></g></g></svg>