<svg width="1347" height="1552" viewBox="0 0 1347 1552" preserveAspectRatio="none" xmlns="http://www.w3.org/2000/svg" xmlns:xlink="http://www.w3.org/1999/xlink" overflow="hidden"><defs></defs><g><rect x="10" y="265.047" width="1330.78" height="1223.97" stroke="#000000" stroke-width="1.5" fill="none"/><rect x="95.5781" y="556.875" width="1235.21" height="728.094" stroke="#000000" stroke-width="1.5" fill="none"/><rect x="105.578" y="678.984" width="1130.16" height="598.984" stroke="#000000" stroke-width="1.5" fill="none"/><g id="part1-lifeline"><g><rect x="58.7891" y="90.6094" width="8" height="1455.02" fill-opacity="0"/><line x1="62" y1="90.6094" x2="62" y2="1545.62" stroke="#181818" stroke-width="0.5" stroke-dasharray="5 5"/></g></g><g id="part2-lifeline"><g><rect x="149.829" y="90.6094" width="8" height="1455.02" fill-opacity="0"/><line x1="153.578" y1="90.6094" x2="153.578" y2="1545.62" stroke="#181818" stroke-width="0.5" stroke-dasharray="5 5"/></g></g><g id="part3-lifeline"><g><rect x="235.259" y="90.6094" width="8" height="1455.02" fill-opacity="0"/><line x1="239.079" y1="90.6094" x2="239.079" y2="1545.62" stroke="#181818" stroke-width="0.5" stroke-dasharray="5 5"/></g></g><g id="part4-lifeline"><g><rect x="623.2" y="90.6094" width="8" height="1455.02" fill-opacity="0"/><line x1="627.181" y1="90.6094" x2="627.181" y2="1545.62" stroke="#181818" stroke-width="0.5" stroke-dasharray="5 5"/></g></g><g id="part5-lifeline"><g><rect x="1162.25" y="90.6094" width="8" height="1455.02" fill-opacity="0"/><line x1="1165.76" y1="90.6094" x2="1165.76" y2="1545.62" stroke="#181818" stroke-width="0.5" stroke-dasharray="5 5"/></g></g><g id="part6-lifeline"><g><rect x="1274.26" y="90.6094" width="8" height="1455.02" fill-opacity="0"/><line x1="1277.73" y1="90.6094" x2="1277.73" y2="1545.62" stroke="#181818" stroke-width="0.5" stroke-dasharray="5 5"/></g></g><g id="part1-head"><text font-family="Arial" font-size="22" x="20" y="85.4209">Worker</text><ellipse cx="62.7891" cy="13.5" rx="8" ry="8" stroke="#181818" stroke-width="0.5" fill="#E2E2F0"/><path d="M62.7891 21.5 62.7891 48.5M49.7891 29.5 75.7891 29.5M62.7891 48.5 49.7891 63.5M62.7891 48.5 75.7891 63.5" stroke="#181818" stroke-width="0.5" fill="none"/></g><g id="part2-head"><text font-family="Arial" font-size="22" x="115.578" y="85.4209">Admin</text><ellipse cx="153.829" cy="13.5" rx="8" ry="8" stroke="#181818" stroke-width="0.5" fill="#E2E2F0"/><path d="M153.829 21.5 153.829 48.5M140.829 29.5 166.829 29.5M153.829 48.5 140.829 63.5M153.829 48.5 166.829 63.5" stroke="#181818" stroke-width="0.5" fill="none"/></g><g id="part3-head"><rect x="202.079" y="50" rx="2.5" ry="2.5" width="74.3604" height="39.6094" stroke="#181818" stroke-width="0.5" fill="#E2E2F0"/><text font-family="Arial" font-size="22" x="209.079" y="77.4209">Redis</text></g><g id="part4-head"><rect x="579.181" y="50" rx="2.5" ry="2.5" width="96.0381" height="39.6094" stroke="#181818" stroke-width="0.5" fill="#E2E2F0"/><text font-family="Arial" font-size="22" x="586.181" y="77.4209">System</text></g><g id="part5-head"><rect x="1106.76" y="50" rx="2.5" ry="2.5" width="118.973" height="39.6094" stroke="#181818" stroke-width="0.5" fill="#E2E2F0"/><text font-family="Arial" font-size="22" x="1113.76" y="77.4209">Database</text></g><g id="part6-head"><rect x="1235.73" y="50" rx="2.5" ry="2.5" width="85.0488" height="39.6094" stroke="#181818" stroke-width="0.5" fill="#E2E2F0"/><text font-family="Arial" font-size="22" x="1242.73" y="77.4209">PayOS</text></g><g id="msg1"><path d="M615.2 128.219 625.2 132.219 615.2 136.219 619.2 132.219Z" stroke="#181818" fill="#181818"/><line x1="62.7891" y1="132.219" x2="621.2" y2="132.219" stroke="#181818"/><text font-family="Arial" font-weight="700" font-size="22" x="69.7891" y="125.03">1</text><text font-family="Arial" font-size="22" x="89.0967" y="125.03">Khởi chạy theo chu kỳ cấu hình</text></g><g id="msg2"><line x1="627.2" y1="197.438" x2="669.2" y2="197.438" stroke="#181818"/><line x1="669.2" y1="197.438" x2="669.2" y2="210.438" stroke="#181818"/><line x1="628.2" y1="210.438" x2="669.2" y2="210.438" stroke="#181818"/><path d="M638.2 206.438 628.2 210.438 638.2 214.438 634.2 210.438Z" stroke="#181818" fill="#181818"/><text font-family="Arial" font-weight="700" font-size="22" x="634.2" y="177.444">2</text><text font-family="Arial" font-size="22" x="653.507" y="164.64">Đọc chu kỳ chạy, batch size</text><text font-family="Arial" font-size="22" x="653.507" y="190.249">và số luồng xử lý đồng thời</text></g><g id="msg3"><path d="M250.259 246.047 240.259 250.047 250.259 254.047 246.259 250.047Z" stroke="#181818" fill="#181818"/><line x1="244.259" y1="250.047" x2="626.2" y2="250.047" stroke="#181818"/><text font-family="Arial" font-weight="700" font-size="22" x="256.259" y="242.858">3</text><text font-family="Arial" font-size="22" x="275.567" y="242.858">Kiểm tra và tạo khóa xử lý</text></g><path d="M10 265.047 87.9033 265.047 87.9033 282.656 77.9033 292.656 10 292.656 10 265.047" stroke="#000000" stroke-width="1.5" fill="#EEEEEE"/><rect x="10" y="265.047" width="1330.78" height="1223.97" stroke="#000000" stroke-width="1.5" fill="none"/><text font-family="Arial" font-weight="700" font-size="22" x="25" y="286.468">alt</text><text font-family="Arial" font-weight="700" font-size="20" x="102.903" y="285.611">[Lượt xử lý trước còn đang chạy]</text><g id="msg4"><path d="M615.2 328.547 625.2 332.547 615.2 336.547 619.2 332.547Z" stroke="#181818" fill="#181818"/><line x1="239.259" y1="332.547" x2="621.2" y2="332.547" stroke="#181818" stroke-dasharray="2 2"/><text font-family="Arial" font-weight="700" font-size="22" x="246.259" y="325.358">4</text><text font-family="Arial" font-size="22" x="265.567" y="325.358">Không cấp khóa xử lý</text></g><g id="msg5"><path d="M73.7891 368.156 63.7891 372.156 73.7891 376.156 69.7891 372.156Z" stroke="#181818" fill="#181818"/><line x1="67.7891" y1="372.156" x2="626.2" y2="372.156" stroke="#181818" stroke-dasharray="2 2"/><text font-family="Arial" font-weight="700" font-size="22" x="79.7891" y="364.968">5</text><text font-family="Arial" font-size="22" x="99.0967" y="364.968">Bỏ qua chu kỳ hiện tại</text></g><line x1="10" y1="381.156" x2="1340.78" y2="381.156" stroke="#000000" stroke-dasharray="2 2"/><text font-family="Arial" font-weight="700" font-size="20" x="15" y="399.721">[Có thể bắt đầu đối soát]</text><g id="msg6"><path d="M615.2 433.047 625.2 437.047 615.2 441.047 619.2 437.047Z" stroke="#181818" fill="#181818"/><line x1="239.259" y1="437.047" x2="621.2" y2="437.047" stroke="#181818" stroke-dasharray="2 2"/><text font-family="Arial" font-weight="700" font-size="22" x="246.259" y="429.858">6</text><text font-family="Arial" font-size="22" x="265.567" y="429.858">Cấp khóa xử lý</text></g><g id="msg7"><path d="M1154.25 498.266 1164.25 502.266 1154.25 506.266 1158.25 502.266Z" stroke="#181818" fill="#181818"/><line x1="627.2" y1="502.266" x2="1160.25" y2="502.266" stroke="#181818"/><text font-family="Arial" font-weight="700" font-size="22" x="634.2" y="482.272">7</text><text font-family="Arial" font-size="22" x="653.507" y="469.468">Lấy danh sách giao dịch PayOS</text><text font-family="Arial" font-size="22" x="653.507" y="495.077">đang chờ xử lý</text></g><g id="msg8"><path d="M638.2 537.875 628.2 541.875 638.2 545.875 634.2 541.875Z" stroke="#181818" fill="#181818"/><line x1="632.2" y1="541.875" x2="1165.25" y2="541.875" stroke="#181818" stroke-dasharray="2 2"/><text font-family="Arial" font-weight="700" font-size="22" x="644.2" y="534.687">8</text><text font-family="Arial" font-size="22" x="663.507" y="534.687">Trả danh sách giao dịch cần đối soát</text></g><path d="M95.5781 556.875 194.096 556.875 194.096 574.484 184.096 584.484 95.5781 584.484 95.5781 556.875" stroke="#000000" stroke-width="1.5" fill="#EEEEEE"/><rect x="95.5781" y="556.875" width="1235.21" height="728.094" stroke="#000000" stroke-width="1.5" fill="none"/><text font-family="Arial" font-weight="700" font-size="22" x="110.578" y="578.296">loop</text><text font-family="Arial" font-weight="700" font-size="20" x="209.096" y="577.439">[Với từng giao dịch chờ xử lý]</text><g id="msg9"><path d="M1266.26 620.375 1276.26 624.375 1266.26 628.375 1270.26 624.375Z" stroke="#181818" fill="#181818"/><line x1="627.2" y1="624.375" x2="1272.26" y2="624.375" stroke="#181818"/><text font-family="Arial" font-weight="700" font-size="22" x="634.2" y="617.187">9</text><text font-family="Arial" font-size="22" x="653.507" y="617.187">Tra cứu trạng thái giao dịch</text></g><g id="msg10"><path d="M638.2 659.984 628.2 663.984 638.2 667.984 634.2 663.984Z" stroke="#181818" fill="#181818"/><line x1="632.2" y1="663.984" x2="1277.26" y2="663.984" stroke="#181818" stroke-dasharray="2 2"/><text font-family="Arial" font-weight="700" font-size="22" x="644.2" y="656.796">10</text><text font-family="Arial" font-size="22" x="678.815" y="656.796">Trả trạng thái giao dịch</text></g><path d="M105.578 678.984 183.481 678.984 183.481 696.594 173.481 706.594 105.578 706.594 105.578 678.984" stroke="#000000" stroke-width="1.5" fill="#EEEEEE"/><rect x="105.578" y="678.984" width="1130.16" height="598.984" stroke="#000000" stroke-width="1.5" fill="none"/><text font-family="Arial" font-weight="700" font-size="22" x="120.578" y="700.405">alt</text><text font-family="Arial" font-weight="700" font-size="20" x="198.481" y="699.549">[PayOS trả về đã thanh toán]</text><g id="msg11"><path d="M1154.25 768.094 1164.25 772.094 1154.25 776.094 1158.25 772.094Z" stroke="#181818" fill="#181818"/><line x1="627.2" y1="772.094" x2="1160.25" y2="772.094" stroke="#181818"/><text font-family="Arial" font-weight="700" font-size="22" x="634.2" y="752.101">11</text><text font-family="Arial" font-size="22" x="668.815" y="739.296">Cập nhật giao dịch và thanh toán</text><text font-family="Arial" font-size="22" x="668.815" y="764.905">sang đã thanh toán</text></g><g id="msg12"><path d="M1154.25 807.703 1164.25 811.703 1154.25 815.703 1158.25 811.703Z" stroke="#181818" fill="#181818"/><line x1="627.2" y1="811.703" x2="1160.25" y2="811.703" stroke="#181818"/><text font-family="Arial" font-weight="700" font-size="22" x="634.2" y="804.515">12</text><text font-family="Arial" font-size="22" x="668.815" y="804.515">Cập nhật đơn hàng liên quan</text></g><g id="msg13"><path d="M1154.25 872.922 1164.25 876.922 1154.25 880.922 1158.25 876.922Z" stroke="#181818" fill="#181818"/><line x1="627.2" y1="876.922" x2="1160.25" y2="876.922" stroke="#181818"/><text font-family="Arial" font-weight="700" font-size="22" x="634.2" y="856.929">13</text><text font-family="Arial" font-size="22" x="668.815" y="844.124">Ghi nhận voucher, trừ tồn kho đã giữ</text><text font-family="Arial" font-size="22" x="668.815" y="869.733">và xóa sản phẩm đã mua khỏi giỏ hàng</text></g><g id="msg14"><path d="M638.2 912.531 628.2 916.531 638.2 920.531 634.2 916.531Z" stroke="#181818" fill="#181818"/><line x1="632.2" y1="916.531" x2="1165.25" y2="916.531" stroke="#181818" stroke-dasharray="2 2"/><text font-family="Arial" font-weight="700" font-size="22" x="644.2" y="909.343">14</text><text font-family="Arial" font-size="22" x="678.815" y="909.343">Xác nhận đã cập nhật dữ liệu</text></g><g id="msg15"><path d="M164.829 952.141 154.829 956.141 164.829 960.141 160.829 956.141Z" stroke="#181818" fill="#181818"/><line x1="158.829" y1="956.141" x2="626.2" y2="956.141" stroke="#181818" stroke-dasharray="2 2"/><text font-family="Arial" font-weight="700" font-size="22" x="170.829" y="948.952">15</text><text font-family="Arial" font-size="22" x="205.444" y="948.952">Gửi thông báo thanh toán thành công</text></g><line x1="105.578" y1="965.141" x2="1235.73" y2="965.141" stroke="#000000" stroke-dasharray="2 2"/><text font-family="Arial" font-weight="700" font-size="20" x="110.578" y="983.705">[PayOS trả về hết hạn, thất bại hoặc đã hủy]</text><g id="msg16"><path d="M1154.25 1017.03 1164.25 1021.03 1154.25 1025.03 1158.25 1021.03Z" stroke="#181818" fill="#181818"/><line x1="627.2" y1="1021.03" x2="1160.25" y2="1021.03" stroke="#181818"/><text font-family="Arial" font-weight="700" font-size="22" x="634.2" y="1013.84">16</text><text font-family="Arial" font-size="22" x="668.815" y="1013.84">Cập nhật giao dịch sang trạng thái cuối</text></g><g id="msg17"><path d="M1154.25 1056.64 1164.25 1060.64 1154.25 1064.64 1158.25 1060.64Z" stroke="#181818" fill="#181818"/><line x1="627.2" y1="1060.64" x2="1160.25" y2="1060.64" stroke="#181818"/><text font-family="Arial" font-weight="700" font-size="22" x="634.2" y="1053.45">17</text><text font-family="Arial" font-size="22" x="668.815" y="1053.45">Cập nhật thanh toán và đơn hàng liên quan</text></g><g id="msg18"><path d="M1154.25 1121.86 1164.25 1125.86 1154.25 1129.86 1158.25 1125.86Z" stroke="#181818" fill="#181818"/><line x1="627.2" y1="1125.86" x2="1160.25" y2="1125.86" stroke="#181818"/><text font-family="Arial" font-weight="700" font-size="22" x="634.2" y="1105.87">18</text><text font-family="Arial" font-size="22" x="668.815" y="1093.06">Hủy đơn còn chờ xử lý</text><text font-family="Arial" font-size="22" x="668.815" y="1118.67">và giải phóng tồn kho đã giữ</text></g><g id="msg19"><path d="M638.2 1161.47 628.2 1165.47 638.2 1169.47 634.2 1165.47Z" stroke="#181818" fill="#181818"/><line x1="632.2" y1="1165.47" x2="1165.25" y2="1165.47" stroke="#181818" stroke-dasharray="2 2"/><text font-family="Arial" font-weight="700" font-size="22" x="644.2" y="1158.28">19</text><text font-family="Arial" font-size="22" x="678.815" y="1158.28">Xác nhận đã cập nhật dữ liệu</text></g><line x1="105.578" y1="1174.47" x2="1235.73" y2="1174.47" stroke="#000000" stroke-dasharray="2 2"/><text font-family="Arial" font-weight="700" font-size="20" x="110.578" y="1193.03">[Giao dịch vẫn đang chờ xử lý]</text><g id="msg20"><path d="M1154.25 1226.36 1164.25 1230.36 1154.25 1234.36 1158.25 1230.36Z" stroke="#181818" fill="#181818"/><line x1="627.2" y1="1230.36" x2="1160.25" y2="1230.36" stroke="#181818"/><text font-family="Arial" font-weight="700" font-size="22" x="634.2" y="1223.17">20</text><text font-family="Arial" font-size="22" x="668.815" y="1223.17">Giữ nguyên trạng thái giao dịch</text></g><g id="msg21"><path d="M638.2 1265.97 628.2 1269.97 638.2 1273.97 634.2 1269.97Z" stroke="#181818" fill="#181818"/><line x1="632.2" y1="1269.97" x2="1165.25" y2="1269.97" stroke="#181818" stroke-dasharray="2 2"/><text font-family="Arial" font-weight="700" font-size="22" x="644.2" y="1262.78">21</text><text font-family="Arial" font-size="22" x="678.815" y="1262.78">Xác nhận không thay đổi trạng thái</text></g><g id="msg22"><line x1="627.2" y1="1349.19" x2="669.2" y2="1349.19" stroke="#181818"/><line x1="669.2" y1="1349.19" x2="669.2" y2="1362.19" stroke="#181818"/><line x1="628.2" y1="1362.19" x2="669.2" y2="1362.19" stroke="#181818"/><path d="M638.2 1358.19 628.2 1362.19 638.2 1366.19 634.2 1362.19Z" stroke="#181818" fill="#181818"/><text font-family="Arial" font-weight="700" font-size="22" x="634.2" y="1329.19">22</text><text font-family="Arial" font-size="22" x="668.815" y="1316.39">Ghi log số giao dịch đã kiểm tra,</text><text font-family="Arial" font-size="22" x="668.815" y="1342">số giao dịch đã cập nhật và thời gian xử lý</text></g><g id="msg23"><path d="M250.259 1397.8 240.259 1401.8 250.259 1405.8 246.259 1401.8Z" stroke="#181818" fill="#181818"/><line x1="244.259" y1="1401.8" x2="626.2" y2="1401.8" stroke="#181818"/><text font-family="Arial" font-weight="700" font-size="22" x="256.259" y="1394.61">23</text><text font-family="Arial" font-size="22" x="290.875" y="1394.61">Giải phóng khóa xử lý</text></g><g id="msg24"><path d="M615.2 1437.41 625.2 1441.41 615.2 1445.41 619.2 1441.41Z" stroke="#181818" fill="#181818"/><line x1="239.259" y1="1441.41" x2="621.2" y2="1441.41" stroke="#181818" stroke-dasharray="2 2"/><text font-family="Arial" font-weight="700" font-size="22" x="246.259" y="1434.22">24</text><text font-family="Arial" font-size="22" x="280.875" y="1434.22">Xác nhận đã giải phóng khóa</text></g><g id="msg25"><path d="M73.7891 1477.02 63.7891 1481.02 73.7891 1485.02 69.7891 1481.02Z" stroke="#181818" fill="#181818"/><line x1="67.7891" y1="1481.02" x2="626.2" y2="1481.02" stroke="#181818" stroke-dasharray="2 2"/><text font-family="Arial" font-weight="700" font-size="22" x="79.7891" y="1473.83">25</text><text font-family="Arial" font-size="22" x="114.404" y="1473.83">Hoàn tất chu kỳ đối soát</text></g><g id="msg26"><path d="M615.2 1523.62 625.2 1527.62 615.2 1531.62 619.2 1527.62Z" stroke="#181818" fill="#181818"/><line x1="62.7891" y1="1527.62" x2="621.2" y2="1527.62" stroke="#181818"/><text font-family="Arial" font-weight="700" font-size="22" x="69.7891" y="1520.44">26</text><text font-family="Arial" font-size="22" x="104.404" y="1520.44">Chờ chu kỳ tiếp theo</text></g></g></svg>